# Blender 3.1.2
# www.blender.org
mtllib part2.mtl
o Cube.005
v -1.000000 0.950000 1.000000
v -1.000000 1.000000 1.050000
v -0.950000 1.000000 1.000000
v -1.000000 1.000000 0.950000
v -1.050000 1.000000 1.000000
v 0.950000 1.000000 1.000000
v 1.000000 0.950000 1.000000
v 1.000000 -0.950000 1.000000
v 0.950000 -1.000000 1.000000
v -1.000000 -0.950000 1.000000
v -0.950000 -1.000000 0.950000
v 1.000000 0.950000 -0.950000
v 0.950000 0.950000 -1.000000
v 0.950000 1.000000 -0.950000
v 0.950000 -0.950000 -1.000000
v 1.000000 -0.950000 -0.950000
v 0.950000 -1.000000 -0.950000
v -1.050000 0.950000 -1.000000
v -1.000000 1.000000 -0.950000
v -1.000000 -1.000000 -0.950000
v -1.000000 -0.950000 -1.000000
v 1.000000 0.950000 2.950000
v 0.950000 1.000000 2.950000
v 0.950000 0.950000 3.000000
v 1.000000 -0.950000 2.950000
v 0.950000 -0.950000 3.000000
v 0.950000 -1.000000 2.950000
v -0.950000 0.950000 3.000000
v -1.000000 1.000000 2.950000
v -1.000000 -0.950000 2.950000
v -0.950000 -1.000000 2.950000
v -0.950000 -0.950000 3.000000
v -2.950000 -0.950000 -1.000000
v -2.950000 -1.000000 -0.950000
v -3.000000 -0.950000 -0.950000
v -3.000000 1.000000 -0.950000
v -2.950000 1.000000 -1.000000
v -2.950000 1.000000 1.000000
v -3.000000 1.000000 0.950000
v -2.950000 -0.950000 1.000000
v -3.000000 -0.950000 0.950000
v -2.950000 -1.000000 0.950000
v -1.000000 4.950000 0.950000
v -1.050000 5.000000 0.950000
v -1.050000 4.950000 1.000000
v -1.000000 4.950000 -0.950000
v -1.050000 4.950000 -1.000000
v -1.050000 5.000000 -0.950000
v -3.000000 4.950000 0.950000
v -2.950000 4.950000 1.000000
v -2.950000 5.000000 0.950000
v -3.000000 4.950000 -0.950000
v -2.950000 5.000000 -0.950000
v -2.950000 4.950000 -1.000000
v -1.000000 1.000000 0.950000
v -1.050000 1.000000 1.000000
vn 1.0000 -0.0000 -0.0000
vn -0.0000 -0.0000 -1.0000
vn -0.0000 -1.0000 -0.0000
vn -0.0000 -0.0000 1.0000
vn -0.0000 1.0000 -0.0000
vn -1.0000 -0.0000 -0.0000
vn 0.5774 0.5774 -0.5774
vn 0.5774 -0.5774 -0.5774
vn 0.5773 0.5773 0.5774
vn 0.5773 -0.5773 0.5774
vn -0.5773 -0.5773 0.5774
vn -0.5774 -0.5773 -0.5773
vn -0.5774 -0.5773 0.5773
vn 0.5774 0.5773 0.5774
vn 0.5774 0.5773 -0.5774
vn -0.5774 0.5773 0.5774
vn -0.5774 0.5773 -0.5774
vn -0.0000 -0.7071 -0.7071
vn 0.7071 -0.7071 -0.0000
vn 0.7071 -0.0000 -0.7071
vn -0.0000 0.7071 -0.7071
vn 0.7071 0.7071 -0.0000
vn 0.7071 -0.0000 0.7071
vn -0.7071 -0.0000 0.7071
vn -0.0000 0.7071 0.7071
vn -0.0000 -0.7071 0.7071
vn -0.7071 -0.7071 -0.0000
vn -0.7071 -0.0000 -0.7071
vn -0.7071 0.7071 -0.0000
vn -0.5774 0.5774 -0.5774
vt 0.618750 0.750000
vt 0.618750 0.750000
vt 0.625000 0.750000
vt 0.625000 0.743750
vt 0.631250 0.750000
vt 0.625000 0.750000
vt 0.625000 0.506250
vt 0.625000 0.500000
vt 0.618750 0.500000
vt 0.375000 0.500000
vt 0.381250 0.500000
vt 0.375000 0.506250
vt 0.381250 0.750000
vt 0.375000 0.743750
vt 0.368750 0.750000
vt 0.368750 0.743750
vt 0.618750 0.250000
vt 0.618750 0.256250
vt 0.618750 0.250000
vt 0.618750 0.243750
vt 0.625000 0.256250
vt 0.868750 0.506250
vt 0.625000 0.243750
vt 0.125000 0.506250
vt 0.381250 0.243750
vt 0.381250 0.250000
vt 0.131250 0.500000
vt 0.381250 0.256250
vt 0.375000 0.243750
vt 0.131250 0.506250
vt 0.625000 0.000000
vt 0.618750 0.000000
vt 0.618750 -0.006250
vt 0.868750 0.750000
vt 0.625000 0.000000
vt 0.131250 0.750000
vt 0.381250 0.000000
vt 0.125000 0.750000
vt 0.618750 0.500000
vt 0.625000 0.506250
vt 0.618750 0.506250
vt 0.381250 0.500000
vt 0.381250 0.506250
vt 0.375000 0.506250
vt 0.618750 0.743750
vt 0.625000 0.750000
vt 0.381250 0.750000
vt 0.375000 0.743750
vt 0.381250 0.743750
vt 0.381250 0.000000
vt 0.125000 0.750000
vt 0.131250 0.750000
vt 0.381250 0.000000
vt 0.381250 0.993750
vt 0.131250 0.750000
vt 0.625000 0.993750
vt 0.625000 0.000000
vt 0.625000 0.000000
vt 0.625000 0.750000
vt 0.625000 0.756250
vt 0.381250 0.750000
vt 0.375000 0.756250
vt 0.381250 0.756250
vt 0.368750 0.750000
vt 0.375000 0.756250
vt 0.368750 0.750000
vt 0.631250 0.750000
vt 0.631250 0.750000
vt 0.625000 0.750000
vt 0.868750 0.750000
vt 0.625000 0.000000
vt 0.875000 0.750000
vt 0.625000 0.000000
vt 0.625000 0.000000
vt 0.868750 0.750000
vt 0.631250 0.750000
vt 0.625000 0.756250
vt 0.625000 0.750000
vt 0.625000 0.756250
vt 0.631250 0.750000
vt 0.625000 0.993750
vt 0.868750 0.750000
vt 0.625000 0.000000
vt 0.868750 0.750000
vt 0.625000 0.000000
vt 0.875000 0.750000
vt 0.631250 0.750000
vt 0.625000 0.750000
s 0
usemtl Material.005
f 12/18/1 8/11/1 16/28/1
f 37/58/2 47/73/2 18/31/2
f 18/32/2 33/50/2 37/58/2
f 9/12/3 31/48/3 11/14/3
f 24/41/4 32/49/4 26/43/4
f 14/22/5 4/5/5 3/4/5
f 39/60/6 35/54/6 41/63/6
f 3/4/5 29/46/5 23/40/5
f 20/36/3 42/66/3 34/52/3
f 39/60/6 52/81/6 36/56/6
f 1/1/4 38/59/4 40/61/4
f 17/30/3 11/16/3 20/36/3
f 48/75/5 51/80/5 44/68/5
f 1/1/4 3/4/4 56/88/4
f 38/59/4 56/88/4 50/78/4
f 21/37/2 13/20/2 15/25/2
f 4/5/1 46/70/1 43/67/1
f 1/1/6 30/47/6 29/46/6
f 12/17/7 13/19/7 14/23/7
f 15/25/8 16/26/8 17/29/8
f 22/39/9 23/40/9 24/41/9
f 25/42/10 26/43/10 27/44/10
f 30/47/11 31/48/11 32/49/11
f 33/51/12 34/52/12 35/55/12
f 40/61/13 41/62/13 42/65/13
f 43/67/14 44/68/14 45/69/14
f 46/71/15 47/73/15 48/74/15
f 49/77/16 50/78/16 51/79/16
f 52/82/17 53/84/17 54/86/17
f 20/36/18 15/24/18 17/30/18
f 17/30/19 8/10/19 9/12/19
f 16/28/20 13/20/20 12/18/20
f 19/35/21 13/20/21 18/33/21
f 6/8/22 12/18/22 14/21/22
f 26/43/23 22/39/23 24/41/23
f 30/47/24 28/45/24 29/46/24
f 23/40/25 28/45/25 24/41/25
f 27/44/26 32/49/26 31/48/26
f 31/48/27 10/13/27 11/14/27
f 23/40/22 7/9/22 6/7/22
f 9/12/19 25/42/19 27/44/19
f 36/57/28 33/50/28 35/53/28
f 41/63/24 38/59/24 39/60/24
f 42/66/27 35/55/27 34/52/27
f 34/52/18 21/38/18 20/36/18
f 10/13/26 42/66/26 11/15/26
f 46/70/22 44/68/22 43/67/22
f 53/84/29 49/76/29 51/80/29
f 48/75/21 54/86/21 53/84/21
f 45/69/25 51/80/25 50/78/25
f 47/73/20 19/35/20 18/31/20
f 50/78/24 39/60/24 38/59/24
f 37/58/28 52/83/28 54/85/28
f 43/67/23 56/88/23 55/87/23
f 7/9/1 25/42/1 8/11/1
f 12/18/1 7/9/1 8/11/1
f 37/58/2 54/85/2 47/73/2
f 18/32/2 21/37/2 33/50/2
f 9/12/3 27/44/3 31/48/3
f 24/41/4 28/45/4 32/49/4
f 3/4/5 6/7/5 14/22/5
f 14/22/5 19/34/5 4/5/5
f 39/60/6 36/56/6 35/54/6
f 23/40/5 6/7/5 3/4/5
f 3/4/5 2/3/5 29/46/5
f 20/36/3 11/15/3 42/66/3
f 39/60/6 49/77/6 52/81/6
f 40/61/4 10/13/4 1/1/4
f 1/1/4 5/6/4 38/59/4
f 17/30/3 9/12/3 11/16/3
f 48/75/5 53/84/5 51/80/5
f 1/1/30 2/2/30 3/4/30
f 3/4/6 4/5/6 55/87/6
f 56/88/5 5/6/5 1/1/5
f 3/4/5 55/87/5 56/88/5
f 38/59/5 5/6/5 56/88/5
f 56/88/4 45/69/4 50/78/4
f 21/37/2 18/33/2 13/20/2
f 43/67/6 55/87/6 4/5/6
f 4/5/1 19/34/1 46/70/1
f 29/46/6 2/3/6 1/1/6
f 1/1/6 10/13/6 30/47/6
f 20/36/18 21/38/18 15/24/18
f 17/30/19 16/27/19 8/10/19
f 16/28/20 15/25/20 13/20/20
f 19/35/21 14/23/21 13/20/21
f 6/8/22 7/9/22 12/18/22
f 26/43/23 25/42/23 22/39/23
f 30/47/24 32/49/24 28/45/24
f 23/40/25 29/46/25 28/45/25
f 27/44/26 26/43/26 32/49/26
f 31/48/27 30/47/27 10/13/27
f 23/40/22 22/39/22 7/9/22
f 9/12/19 8/11/19 25/42/19
f 36/57/28 37/58/28 33/50/28
f 41/63/24 40/61/24 38/59/24
f 42/66/27 41/64/27 35/55/27
f 34/52/18 33/51/18 21/38/18
f 10/13/26 40/61/26 42/66/26
f 46/70/22 48/75/22 44/68/22
f 53/84/29 52/82/29 49/76/29
f 48/75/21 47/72/21 54/86/21
f 45/69/25 44/68/25 51/80/25
f 47/73/20 46/71/20 19/35/20
f 50/78/24 49/77/24 39/60/24
f 37/58/28 36/57/28 52/83/28
f 43/67/23 45/69/23 56/88/23
f 7/9/1 22/39/1 25/42/1
